2.6Hz3min_grf.mot
version=1
nRows=17
nColumns 19
inDegrees=yes
endheader
time	1_ground_force_vx	1_ground_force_vy	1_ground_force_vz	1_ground_force_px	1_ground_force_py	1_ground_force_pz	1_ground_torque_x	1_ground_torque_y	1_ground_torque_z	2_ground_force_vx	2_ground_force_vy	2_ground_force_vz	2_ground_force_px	2_ground_force_py	2_ground_force_pz	2_ground_torque_x	2_ground_torque_y	2_ground_torque_z
            0.005000	            0.000147	           -0.180462	            0.045083	           -0.263637	            0.006034	           -0.362566	           -0.058386	           -0.018093	           -0.093917	            0.468047	            0.005374	           -1.032618	           -0.288540	            0.005369	           -0.677144	           -0.375947	            0.073996	            0.075830
            0.005500	           -0.046185	            0.000581	           -0.137454	           -0.263637	            0.006034	           -0.362566	            0.043025	            0.037601	           -0.152285	            0.516952	           -0.547404	           -0.893824	           -0.288540	            0.005369	           -0.677144	           -0.357383	            0.130915	            0.038324
            0.006000	            0.090955	           -0.359137	           -0.322765	           -0.263637	            0.006034	           -0.362566	            0.070013	           -0.008796	           -0.090280	            0.375738	           -0.363763	           -0.893107	           -0.288540	            0.005369	           -0.677144	           -0.282157	            0.112146	            0.075925
            0.006500	            0.503071	           -0.898872	           -0.555387	           -0.263637	            0.006034	           -0.362566	            0.023862	            0.000620	           -0.072513	            0.281538	           -0.181292	           -0.516986	           -0.288540	            0.005369	           -0.677144	           -0.319905	            0.150157	           -0.018175
            0.007000	            0.595066	           -0.719178	           -0.417274	           -0.263637	            0.006034	           -0.362566	            0.074580	            0.000032	            0.081646	            0.044609	            0.554623	           -0.561186	           -0.288540	            0.005369	           -0.677144	           -0.263422	            0.121801	            0.038251
            0.007500	            0.319633	           -0.538376	           -0.553386	           -0.263637	            0.006034	           -0.362566	            0.117513	            0.028203	           -0.061661	            0.139577	            0.187166	           -0.703324	           -0.288540	            0.005369	           -0.677144	           -0.282003	            0.065017	            0.038056
            0.008000	            0.136717	           -0.539198	           -0.369508	           -0.263637	            0.006034	           -0.362566	            0.109910	            0.009234	            0.024448	            0.000856	           -0.364447	           -1.080660	           -0.288540	            0.005369	           -0.677144	           -0.375940	            0.083113	            0.170115
            0.008500	            0.000048	            0.360335	            0.047402	           -0.263637	            0.006034	           -0.362566	            0.072476	            0.028471	           -0.169254	            0.280023	            0.188511	           -0.938025	           -0.288540	            0.005369	           -0.677144	           -0.319785	            0.112481	           -0.056010
            0.009000	           -0.137074	           -0.000813	            0.183765	           -0.263637	            0.006034	           -0.362566	            0.066789	           -0.017725	           -0.194087	            0.326873	            0.188680	           -0.938044	           -0.288540	            0.005369	           -0.677144	           -0.376176	            0.130914	            0.019482
            0.009500	           -0.001042	            0.722636	           -0.363755	           -0.263637	            0.006034	           -0.362566	            0.052434	            0.046698	           -0.112744	            0.467526	            0.188350	           -0.703464	           -0.288540	            0.005369	           -0.677144	           -0.244593	            0.103165	           -0.018375
            0.010000	            0.320185	            0.181507	           -0.275159	           -0.263637	            0.006034	           -0.362566	           -0.044800	           -0.036603	           -0.042763	            0.470787	           -0.731889	           -0.847533	           -0.288540	            0.005369	           -0.677144	           -0.281960	            0.055497	            0.056873
            0.010500	            0.456965	            0.543245	           -0.549090	           -0.263637	            0.006034	           -0.362566	            0.097921	            0.028505	           -0.112180	            0.375196	           -0.180619	           -0.610882	           -0.288540	            0.005369	           -0.677144	           -0.282019	            0.065151	            0.000356
            0.011000	            0.182527	           -0.358923	           -0.368848	           -0.263637	            0.006034	           -0.362566	            0.072026	           -0.018079	           -0.067617	            0.281456	           -0.180623	           -0.704698	           -0.288540	            0.005369	           -0.677144	           -0.263227	            0.074336	            0.094633
            0.011500	            0.182266	           -0.178264	           -0.459787	           -0.263637	            0.006034	           -0.362566	            0.019441	            0.074422	           -0.085894	           -0.090665	           -0.918737	           -0.660239	           -0.288540	            0.005369	           -0.677144	           -0.281986	            0.064883	            0.075757
            0.012000	           -0.046493	           -0.179095	           -0.275795	           -0.263637	            0.006034	           -0.362566	            0.105610	            0.000151	           -0.039806	            0.140844	           -0.180628	           -0.845423	           -0.288540	            0.005369	           -0.677144	           -0.244541	            0.084394	           -0.056143
            0.012500	           -0.183243	            0.540368	            0.094486	           -0.263637	            0.006034	           -0.362566	            0.051764	           -0.027318	           -0.120872	            0.470643	           -0.730717	           -1.176030	           -0.288540	            0.005369	           -0.677144	           -0.338494	            0.093441	           -0.037219
            0.013000	           -0.138002	            0.721626	           -0.134135	           -0.263637	            0.006034	           -0.362566	           -0.070122	            0.009887	           -0.174856	            0.138747	            0.372654	           -1.078092	           -0.288540	            0.005369	           -0.677144	           -0.301061	            0.140571	            0.038334
